<?xml version="1.0" ?><svg viewBox="0 0 512 512" xmlns="http://www.w3.org/2000/svg"><g id="Sunny_Day"><circle cx="256" cy="256" r="112.8289"/><path d="M256,121.8916a10,10,0,0,0,10-10V80.98a10,10,0,0,0-20,0v30.9116A10,10,0,0,0,256,121.8916Z"/><path d="M256,390.1084a10,10,0,0,0-10,10V431.02a10,10,0,0,0,20,0V400.1084A10,10,0,0,0,256,390.1084Z"/><path d="M111.8916,246H80.98a10,10,0,0,0,0,20h30.9116a10,10,0,0,0,0-20Z"/><path d="M431.02,246H400.1084a10,10,0,0,0,0,20H431.02a10,10,0,0,0,0-20Z"/><path d="M147.0288,350.8286l-21.8579,21.8579a10,10,0,0,0,14.1426,14.1426l21.8579-21.8579a10,10,0,0,0-14.1426-14.1426Z"/><path d="M372.6865,125.1709l-21.8579,21.8579a10,10,0,0,0,14.1426,14.1426l21.8579-21.8579a10,10,0,0,0-14.1426-14.1426Z"/><path d="M364.9712,350.8286a10,10,0,0,0-14.1426,14.1426l21.8579,21.8579a10,10,0,0,0,14.1426-14.1426Z"/><path d="M147.0288,161.1714a10,10,0,0,0,14.1426-14.1426l-21.8579-21.8579a10,10,0,1,0-14.1426,14.1426Z"/></g></svg>