<?xml version="1.0" ?><svg height="512" viewBox="0 0 512 512" width="512" xmlns="http://www.w3.org/2000/svg"><title/><line style="fill:none;stroke:#000;stroke-linecap:round;stroke-linejoin:round;stroke-width:32px" x1="256" x2="256" y1="32" y2="480"/><path d="M313.72,80A111.47,111.47,0,0,1,256,96a111.47,111.47,0,0,1-57.72-16" style="fill:none;stroke:#000;stroke-linecap:round;stroke-linejoin:round;stroke-width:32px"/><path d="M198.28,432a112.11,112.11,0,0,1,115.44,0" style="fill:none;stroke:#000;stroke-linecap:round;stroke-linejoin:round;stroke-width:32px"/><line style="fill:none;stroke:#000;stroke-linecap:round;stroke-linejoin:round;stroke-width:32px" x1="449.99" x2="62.01" y1="144" y2="368"/><path d="M437.27,218a112.09,112.09,0,0,1-57.71-100" style="fill:none;stroke:#000;stroke-linecap:round;stroke-linejoin:round;stroke-width:32px"/><path d="M74.73,294a112.09,112.09,0,0,1,57.71,100" style="fill:none;stroke:#000;stroke-linecap:round;stroke-linejoin:round;stroke-width:32px"/><line style="fill:none;stroke:#000;stroke-linecap:round;stroke-linejoin:round;stroke-width:32px" x1="62.01" x2="449.99" y1="144" y2="368"/><path d="M74.73,218a112.09,112.09,0,0,0,57.71-100" style="fill:none;stroke:#000;stroke-linecap:round;stroke-linejoin:round;stroke-width:32px"/><path d="M437.27,294a112.09,112.09,0,0,0-57.71,100" style="fill:none;stroke:#000;stroke-linecap:round;stroke-linejoin:round;stroke-width:32px"/></svg>